Coordinates
version=1
nRows=26
nColumns=24
inDegrees=yes

Units are S.I. units (second, meters, Newtons, ...)
Angles are in degrees.

endheader
time	pelvis_tilt	pelvis_list	pelvis_rotation	pelvis_tx	pelvis_ty	pelvis_tz	hip_flexion_r	hip_adduction_r	hip_rotation_r	knee_angle_r	ankle_angle_r	subtalar_angle_r	mtp_angle_r	hip_flexion_l	hip_adduction_l	hip_rotation_l	knee_angle_l	ankle_angle_l	subtalar_angle_l	mtp_angle_l	lumbar_extension	lumbar_bending	lumbar_rotation
      1.17383333	      5.99027743	      3.19565808	     -0.19329434	      0.11846348	      1.01438001	      0.27903175	     14.43113763	     -1.71452577	     -1.68785430	    -69.09644126	     -5.05076679	    -18.19578664	     -8.77413119	      1.28290096	      6.90010866	     -0.00755836	    -11.20836129	      3.35733788	     -6.32525296	      2.99702344	     -7.77991027	     -1.10594245	      2.60601490
      1.17800000	      6.00163951	      3.05308395	     -0.23152742	      0.12345953	      1.01514227	      0.27896737	     14.98688951	     -1.50239921	     -1.57148924	    -68.93076320	     -4.43067639	    -18.45681616	     -8.78275623	      0.71767983	      6.75923302	      0.04938859	    -10.76431714	      3.38838246	     -6.36505146	      2.98728290	     -7.81723840	     -0.94000656	      2.59400538
      1.18216667	      6.02667734	      2.90509069	     -0.26825211	      0.12845129	      1.01589654	      0.27890117	     15.50571132	     -1.28553601	     -1.45969819	    -68.69207182	     -3.80161331	    -18.70937326	     -8.79549933	      0.13571910	      6.61387791	      0.12134132	    -10.31577659	      3.41586164	     -6.41909839	      2.97337121	     -7.87360675	     -0.76350825	      2.58205697
      1.18633333	      6.07117292	      2.76242054	     -0.30313811	      0.13346100	      1.01666888	      0.27884926	     15.97591561	     -1.07495342	     -1.35589674	    -68.37267502	     -3.20157112	    -18.98082004	     -8.82974997	     -0.48626733	      6.47739409	      0.23903449	     -9.82991476	      3.42325257	     -6.54435446	      2.94220195	     -7.94387391	     -0.61741006	      2.57733929
      1.19050000	      6.04877565	      2.58560122	     -0.32412276	      0.13845973	      1.01732057	      0.27879234	     16.49648944	     -0.82624588	     -1.26303241	    -67.97656929	     -2.59258128	    -19.12471826	     -8.83855974	     -0.99065963	      6.29403637	      0.27716816	     -9.43094625	      3.45378355	     -6.56484662	      2.92803478	     -7.92786510	     -0.41060248	      2.55522916
      1.19466667	      6.06919086	      2.41727820	     -0.34381015	      0.14344775	      1.01800070	      0.27873124	     16.94760813	     -0.59141180	     -1.17787269	    -67.51559818	     -1.94860613	    -19.30575721	     -8.85224002	     -1.55212331	      6.12347414	      0.35093342	     -9.00944229	      3.48419175	     -6.61300001	      2.90952042	     -7.98073976	     -0.20275142	      2.53471796
      1.19883333	      6.12720665	      2.27277333	     -0.37253037	      0.14843560	      1.01867683	      0.27866359	     17.34057877	     -0.39151114	     -1.09412250	    -66.99627162	     -1.35452460	    -19.52141357	     -8.89654563	     -2.18456021	      5.98726419	      0.49736592	     -8.52477742	      3.48999026	     -6.77543059	      2.86544613	     -8.08322325	     -0.03286705	      2.51453797
      1.20300000	      6.08915361	      2.07878753	     -0.37942946	      0.15342207	      1.01920751	      0.27860572	     17.80826121	     -0.13171296	     -1.02768425	    -66.38853313	     -0.78325663	    -19.63573738	     -8.91324336	     -2.65785085	      5.78438737	      0.55638617	     -8.14903987	      3.51909001	     -6.81332925	      2.84425453	     -8.06179240	      0.20050477	      2.49247136
      1.20716667	      6.15479531	      1.93391302	     -0.39487614	      0.15840099	      1.01981417	      0.27854719	     18.14305917	      0.06538755	     -0.95859635	    -65.73137357	     -0.19022833	    -19.81711299	     -8.96855299	     -3.28491297	      5.64421452	      0.70124900	     -7.68808278	      3.52866415	     -6.97606345	      2.79047355	     -8.16784766	      0.36378327	      2.46015347
      1.21133333	      6.12138183	      1.74914094	     -0.38922641	      0.16338627	      1.02027666	      0.27849271	     18.55524825	      0.30889759	     -0.90642299	    -64.98811575	      0.35771522	    -19.93000935	     -8.99790159	     -3.75402083	      5.44987153	      0.77381011	     -7.32844476	      3.55577120	     -7.03907012	      2.75988435	     -8.14360191	      0.57627010	      2.43536361
      1.21550000	      6.17320956	      1.58605409	     -0.39338729	      0.16836268	      1.02078464	      0.27843304	     18.85587842	      0.51897615	     -0.85943730	    -64.19242661	      0.88646511	    -20.10401578	     -9.06789390	     -4.35585902	      5.28647624	      0.91695763	     -6.88519827	      3.57100882	     -7.19247568	      2.69846866	     -8.24066723	      0.77474228	      2.39189302
      1.21966667	      6.13427534	      1.41070101	     -0.37841147	      0.17333017	      1.02113513	      0.27837620	     19.23084933	      0.74303883	     -0.82409511	    -63.32743870	      1.39416708	    -20.21574571	     -9.10074765	     -4.80470475	      5.10006330	      0.98493162	     -6.54852999	      3.60729200	     -7.24772623	      2.66833708	     -8.21297210	      0.98023791	      2.36544608
      1.22383333	      6.17727316	      1.26577987	     -0.37856713	      0.17830492	      1.02153501	      0.27832363	     19.49647723	      0.92711699	     -0.78474432	    -62.41206664	      1.85548721	    -20.41739066	     -9.18831529	     -5.39100533	      4.95520288	      1.13783073	     -6.11522484	      3.61889519	     -7.42044080	      2.59921608	     -8.30175584	      1.15450289	      2.31158060
      1.22800000	      6.16927293	      1.10818598	     -0.35999561	      0.18327647	      1.02182773	      0.27826342	     19.79047801	      1.12130346	     -0.76342884	    -61.42694338	      2.29640872	    -20.58375420	     -9.27351764	     -5.88717600	      4.79007247	      1.24927712	     -5.75063031	      3.65093997	     -7.53773424	      2.53549632	     -8.31845378	      1.34360104	      2.26521452
      1.23216667	      6.16347812	      0.95799443	     -0.34082207	      0.18823932	      1.02205946	      0.27821265	     20.06112016	      1.30595586	     -0.74459213	    -60.38597574	      2.69487563	    -20.77139690	     -9.37022897	     -6.38201261	      4.63177917	      1.35932617	     -5.39149282	      3.68303749	     -7.65094788	      2.46771359	     -8.34230633	      1.52193310	      2.21544552
      1.23633333	      6.12526693	      0.80789470	     -0.31038598	      0.19320354	      1.02221112	      0.27815208	     20.34072612	      1.48613777	     -0.73496102	    -59.28154871	      3.07796553	    -20.91011439	     -9.42301317	     -6.81048727	      4.46958007	      1.42645948	     -5.09501721	      3.72939125	     -7.69649594	      2.43216834	     -8.31926824	      1.70993106	      2.18242809
      1.24050000	      6.15433151	      0.67146160	     -0.29215293	      0.19817713	      1.02238918	      0.27811903	     20.52384790	      1.64992963	     -0.72662119	    -58.12070697	      3.37396211	    -21.18037416	     -9.53074417	     -7.35563862	      4.32494768	      1.55580750	     -4.71224485	      3.77348140	     -7.82464482	      2.36624594	     -8.39181346	      1.86590766	      2.10843898
      1.24466667	      6.12788947	      0.54719745	     -0.26446989	      0.20314195	      1.02244552	      0.27807476	     20.74863917	      1.79649029	     -0.72486993	    -56.91282926	      3.65078325	    -21.41021848	     -9.65659013	     -7.81498753	      4.19159723	      1.67184737	     -4.37844897	      3.80745479	     -7.94598031	      2.29158484	     -8.39506039	      2.01969179	      2.04930224
      1.24883333	      6.12090155	      0.42138915	     -0.23422157	      0.20811475	      1.02247522	      0.27802995	     20.92470384	      1.93924294	     -0.73521324	    -55.64482366	      3.89085133	    -21.64407906	     -9.80116151	     -8.29154440	      4.05453884	      1.76418524	     -4.05210812	      3.84915383	     -8.03957635	      2.21023181	     -8.41519413	      2.17135831	      1.98846480
      1.25300000	      6.10880990	      0.31141183	     -0.20298617	      0.21307503	      1.02244139	      0.27799296	     21.08681605	      2.06440182	     -0.74201621	    -54.33094323	      4.09641883	    -21.86464028	     -9.93095317	     -8.75051883	      3.93350057	      1.85744613	     -3.75063056	      3.91514264	     -8.11289199	      2.14076427	     -8.44046109	      2.30446024	      1.93225578
      1.25716667	      6.03924143	      0.20757117	     -0.16374865	      0.21805453	      1.02227877	      0.27794693	     21.29193862	      2.17242244	     -0.77339856	    -52.97695204	      4.30122171	    -22.02541035	    -10.01017958	     -9.12562836	      3.81602147	      1.91004674	     -3.49189384	      3.98151339	     -8.16183201	      2.10026380	     -8.39075586	      2.43332395	      1.89381306
      1.26133333	      6.06015723	      0.12097929	     -0.14144652	      0.22302402	      1.02219113	      0.27792737	     21.37088334	      2.27226541	     -0.77551306	    -51.56294481	      4.38005580	    -22.31519226	    -10.15624897	     -9.63386521	      3.72135901	      2.01643169	     -3.16468008	      4.04246397	     -8.24720904	      2.02779227	     -8.45134822	      2.54121646	      1.80878693
      1.26550000	      6.05364978	      0.02759204	     -0.10844118	      0.22800811	      1.02202012	      0.27789946	     21.45512610	      2.36962258	     -0.80437287	    -50.10345860	      4.45954030	    -22.52216854	    -10.30372218	    -10.09248708	      3.61575564	      2.09200567	     -2.87805187	      4.11136625	     -8.31669142	      1.95503481	     -8.47606957	      2.65618710	      1.74908241
      1.26966667	      6.03552672	     -0.05304376	     -0.07972823	      0.23300255	      1.02178544	      0.27788705	     21.53225990	      2.45298157	     -0.83299183	    -48.60818844	      4.50499056	    -22.71099222	    -10.45659023	    -10.53690795	      3.52367626	      2.15822557	     -2.59663967	      4.18523121	     -8.37549760	      1.88023716	     -8.49042373	      2.76035476	      1.68781574
      1.27383333	      5.98983143	     -0.12166060	     -0.04906318	      0.23799338	      1.02146412	      0.27787108	     21.61948956	      2.52058332	     -0.86294698	    -47.07844290	      4.51647196	    -22.86578586	    -10.60641897	    -10.93888945	      3.44426032	      2.22190733	     -2.33887332	      4.26776228	     -8.42683153	      1.80613526	     -8.47595541	      2.84333138	      1.62935271
      1.27800000	      5.97285605	     -0.18342993	     -0.02688369	      0.24301393	      1.02113644	      0.27786811	     21.65230651	      2.57775462	     -0.90169239	    -45.51551560	      4.49914914	    -22.99880606	    -10.77924616	    -11.38158144	      3.37299340	      2.26241246	     -2.06609348	      4.35400592	     -8.47080575	      1.71911301	     -8.47989781	      2.92196440	      1.56673636
